<svg width="13" height="10" viewBox="0 0 13 10" fill="none" xmlns="http://www.w3.org/2000/svg">
<path fill-rule="evenodd" clip-rule="evenodd" d="M11.5791 0.27896C12.1385 0.432456 12.579 0.884731 12.7285 1.45908C13.0002 2.50002 13.0002 4.67195 13.0002 4.67195C13.0002 4.67195 13.0002 6.8438 12.7285 7.88481C12.579 8.45916 12.1385 8.91144 11.5791 9.06501C10.5654 9.34389 6.5001 9.34389 6.5001 9.34389C6.5001 9.34389 2.4348 9.34389 1.42101 9.06501C0.861632 8.91144 0.421103 8.45916 0.271601 7.88481C0 6.8438 0 4.67195 0 4.67195C0 4.67195 0 2.50002 0.271601 1.45908C0.421103 0.884731 0.861632 0.432456 1.42101 0.27896C2.4348 0 6.5001 0 6.5001 0C6.5001 0 10.5654 0 11.5791 0.27896ZM5.28134 2.84375V6.90631L8.53139 4.87511L5.28134 2.84375Z" fill="white"/>
</svg>
