<svg width="13" height="13" viewBox="0 0 13 13" fill="none" xmlns="http://www.w3.org/2000/svg">
<path fill-rule="evenodd" clip-rule="evenodd" d="M6.50071 0C4.73537 0 4.51382 0.00771895 3.82047 0.0392718C3.12848 0.0709602 2.65613 0.180515 2.24283 0.341259C1.81531 0.507284 1.45265 0.729373 1.09135 1.09081C0.729779 1.45211 0.50769 1.81476 0.341123 2.24215C0.179973 2.65559 0.0702831 3.12807 0.0391364 3.8198C0.00812521 4.51315 0 4.73483 0 6.50017C0 8.2655 0.00785437 8.48637 0.0392718 9.17972C0.0710956 9.87172 0.18065 10.3441 0.341259 10.7574C0.507419 11.1849 0.729508 11.5475 1.09094 11.9088C1.45211 12.2704 1.81477 12.493 2.24202 12.6591C2.65559 12.8198 3.12807 12.9294 3.81993 12.9611C4.51328 12.9926 4.7347 13.0003 6.4999 13.0003C8.26537 13.0003 8.48624 12.9926 9.17959 12.9611C9.87159 12.9294 10.3445 12.8198 10.758 12.6591C11.1854 12.493 11.5475 12.2704 11.9087 11.9088C12.2703 11.5475 12.4924 11.1849 12.6589 10.7575C12.8187 10.3441 12.9284 9.87159 12.9609 9.17986C12.9921 8.48651 13.0002 8.2655 13.0002 6.50017C13.0002 4.73483 12.9921 4.51328 12.9609 3.81993C12.9284 3.12793 12.8187 2.65559 12.6589 2.24229C12.4924 1.81477 12.2703 1.45211 11.9087 1.09081C11.5471 0.729237 11.1856 0.507148 10.7576 0.341259C10.3433 0.180515 9.87064 0.0709602 9.17864 0.0392718C8.48529 0.00771895 8.26456 0 6.49868 0H6.50071ZM5.91756 1.17137C6.09063 1.1711 6.28374 1.17137 6.50068 1.17137C8.23623 1.17137 8.44193 1.1776 9.12729 1.20874C9.76106 1.23772 10.105 1.34362 10.3342 1.43259C10.6375 1.55041 10.8538 1.69124 11.0811 1.91875C11.3086 2.14626 11.4495 2.36293 11.5676 2.66627C11.6565 2.89513 11.7626 3.2391 11.7914 3.87286C11.8226 4.55809 11.8293 4.76393 11.8293 6.49866C11.8293 8.23339 11.8226 8.43923 11.7914 9.12446C11.7624 9.75822 11.6565 10.1022 11.5676 10.331C11.4497 10.6344 11.3086 10.8504 11.0811 11.0778C10.8536 11.3053 10.6376 11.4461 10.3342 11.5639C10.1053 11.6533 9.76106 11.7589 9.12729 11.7879C8.44206 11.819 8.23623 11.8258 6.50068 11.8258C4.765 11.8258 4.5593 11.819 3.87407 11.7879C3.24031 11.7586 2.89634 11.6527 2.66707 11.5638C2.36373 11.446 2.14706 11.3051 1.91955 11.0776C1.69205 10.8501 1.55121 10.634 1.43312 10.3305C1.34415 10.1016 1.23812 9.75768 1.20927 9.12391C1.17813 8.43869 1.1719 8.23285 1.1719 6.49703C1.1719 4.76122 1.17813 4.55646 1.20927 3.87124C1.23825 3.23747 1.34415 2.8935 1.43312 2.66437C1.55094 2.36103 1.69205 2.14436 1.91955 1.91685C2.14706 1.68935 2.36373 1.54851 2.66707 1.43042C2.8962 1.34105 3.24031 1.23542 3.87407 1.2063C4.47371 1.17922 4.70609 1.1711 5.91756 1.16974V1.17137ZM9.97042 2.25067C9.53978 2.25067 9.1904 2.59964 9.1904 3.03042C9.1904 3.46105 9.53978 3.81044 9.97042 3.81044C10.4011 3.81044 10.7504 3.46105 10.7504 3.03042C10.7504 2.59978 10.4011 2.25067 9.97042 2.25067ZM6.50072 3.16204C4.65725 3.16204 3.16261 4.65667 3.16261 6.50015C3.16261 8.34362 4.65725 9.83758 6.50072 9.83758C8.34419 9.83758 9.83829 8.34362 9.83829 6.50015C9.83829 4.65667 8.34419 3.16204 6.50072 3.16204ZM6.50069 4.33343C7.69727 4.33343 8.66742 5.30344 8.66742 6.50015C8.66742 7.69672 7.69727 8.66687 6.50069 8.66687C5.30399 8.66687 4.33397 7.69672 4.33397 6.50015C4.33397 5.30344 5.30399 4.33343 6.50069 4.33343Z" fill="white"/>
</svg>
