<svg width="12" height="10" viewBox="0 0 12 10" fill="none" xmlns="http://www.w3.org/2000/svg">
<path fill-rule="evenodd" clip-rule="evenodd" d="M5.82672 2.63801L5.85273 3.06694L5.41919 3.01442C3.84112 2.81309 2.46248 2.1303 1.29194 0.983577L0.719669 0.414592L0.572267 0.834766C0.260121 1.7714 0.459548 2.76056 1.10985 3.42584C1.45668 3.79349 1.37864 3.84601 0.780364 3.62717C0.572267 3.55714 0.390182 3.50462 0.372841 3.53088C0.312146 3.59216 0.520243 4.38874 0.684986 4.70387C0.910425 5.14155 1.36997 5.57048 1.87287 5.82433L2.29774 6.02567L1.79484 6.03442C1.30928 6.03442 1.29194 6.04317 1.34396 6.227C1.51737 6.79599 2.20236 7.39999 2.96538 7.6626L3.50297 7.84642L3.03475 8.12654C2.34109 8.5292 1.52604 8.7568 0.710998 8.77431C0.320816 8.78306 0 8.81807 0 8.84433C0 8.93187 1.05783 9.42207 1.67345 9.61465C3.52031 10.1836 5.714 9.93854 7.36143 8.96689C8.53198 8.27535 9.70253 6.90103 10.2488 5.57048C10.5436 4.86143 10.8384 3.5659 10.8384 2.94439C10.8384 2.54172 10.8644 2.4892 11.35 2.00775C11.6361 1.72764 11.9049 1.42126 11.9569 1.33372C12.0436 1.1674 12.0349 1.1674 11.5927 1.31622C10.8557 1.57882 10.7517 1.54381 11.1159 1.1499C11.3846 0.86978 11.7055 0.36207 11.7055 0.213258C11.7055 0.186997 11.5754 0.230765 11.428 0.309548C11.2719 0.397084 10.9251 0.528389 10.665 0.607171L10.1968 0.755983L9.77189 0.467113C9.53778 0.309548 9.20829 0.134475 9.03488 0.0819537C8.59267 -0.0405971 7.91636 -0.0230899 7.51751 0.116968C6.43367 0.510881 5.74868 1.5263 5.82672 2.63801Z" fill="white"/>
</svg>
