<svg width="13" height="13" viewBox="0 0 13 13" fill="none" xmlns="http://www.w3.org/2000/svg">
<path fill-rule="evenodd" clip-rule="evenodd" d="M13.0002 6.49109C13.0002 6.93068 12.9554 7.36965 12.8675 7.79756C12.7818 8.2153 12.6549 8.62541 12.4886 9.01747C12.3261 9.40259 12.1245 9.77371 11.889 10.1198C11.657 10.4637 11.3897 10.7864 11.0961 11.0805C10.8019 11.3733 10.4781 11.6399 10.1344 11.8729C9.78715 12.1067 9.41549 12.308 9.03015 12.4712C8.63752 12.6367 8.22646 12.7635 7.80908 12.849C7.38061 12.9372 6.94003 12.9821 6.49981 12.9821C6.05925 12.9821 5.6187 12.9372 5.19084 12.849C4.77283 12.7635 4.36178 12.6367 3.96947 12.4712C3.58415 12.308 3.21213 12.1067 2.8649 11.8729C2.52115 11.6399 2.1974 11.3733 1.9038 11.0805C1.6099 10.7864 1.34263 10.4637 1.11029 10.1198C0.876046 9.77371 0.674163 9.40256 0.511029 9.01747C0.344689 8.62541 0.217428 8.21527 0.131408 7.79756C0.0444473 7.36965 0 6.93068 0 6.49109C0 6.05117 0.0444218 5.61125 0.131434 5.18429C0.217453 4.76655 0.344714 4.35579 0.511054 3.96437C0.674189 3.57898 0.876071 3.20752 1.11032 2.8614C1.34265 2.51721 1.60992 2.19517 1.90383 1.90072C2.19743 1.60785 2.52118 1.34196 2.86493 1.10932C3.21216 0.874451 3.58417 0.673216 3.96949 0.509656C4.36181 0.343861 4.77283 0.216784 5.19086 0.131854C5.61872 0.0443831 6.05928 0 6.49983 0C6.94006 0 7.38061 0.0443831 7.80911 0.131854C8.22648 0.216809 8.63752 0.343887 9.03017 0.509656C9.41549 0.67319 9.78717 0.874451 10.1344 1.10932C10.4782 1.34196 10.8019 1.60785 11.0961 1.90072C11.3897 2.19517 11.657 2.51721 11.889 2.8614C12.1245 3.20752 12.3261 3.579 12.4886 3.96437C12.6549 4.35579 12.7818 4.76655 12.8675 5.18429C12.9554 5.61125 13.0002 6.05117 13.0002 6.49109ZM4.13131 1.47728C2.58331 2.20723 1.42797 3.63158 1.06771 5.34817C1.21405 5.34944 3.52729 5.3786 6.19252 4.67147C5.23175 2.96693 4.20527 1.57588 4.13131 1.47728ZM6.65244 5.52504C3.79423 6.3795 1.05152 6.31802 0.953138 6.31423C0.951535 6.37381 0.948685 6.43148 0.948685 6.49108C0.948685 7.9151 1.48668 9.21331 2.37097 10.1949C2.36906 10.1921 3.88818 7.50087 6.88383 6.53356C6.95619 6.50947 7.02984 6.4879 7.10284 6.467C6.96352 6.15197 6.81145 5.83628 6.65244 5.52504ZM10.1658 2.33083C9.1885 1.4703 7.90526 0.948326 6.49979 0.948326C6.04875 0.948326 5.61105 1.00285 5.19176 1.10363C5.27491 1.21521 6.3176 2.59645 7.26694 4.33709C9.36151 3.55298 10.1521 2.35111 10.1658 2.33083ZM7.48123 7.3855C7.46886 7.3896 7.4565 7.39313 7.44441 7.39755C4.16917 8.5377 3.0996 10.8354 3.08803 10.8605C4.03042 11.5923 5.21243 12.0338 6.49982 12.0338C7.26856 12.0338 8.0008 11.8775 8.66703 11.5946C8.58483 11.1103 8.26235 9.4127 7.48123 7.3855ZM9.60178 11.0881C10.8482 10.2482 11.7334 8.91447 11.9804 7.36963C11.8661 7.33287 10.3131 6.84191 8.52131 7.12876C9.24943 9.12681 9.54527 10.754 9.60178 11.0881ZM7.69421 5.16307C7.82305 5.42741 7.94782 5.69645 8.06302 5.96684C8.10398 6.06384 8.14398 6.15893 8.18301 6.254C10.09 6.01437 11.9687 6.41753 12.049 6.43399C12.0363 5.11995 11.5656 3.91396 10.7867 2.9698C10.7762 2.98466 9.88589 4.26926 7.69421 5.16307Z" fill="white"/>
</svg>
